#!OML:ASF I:\Actors\actors\Patient Classification 2\Patient 1\Session 1\actor1.ASF
:FULLY-SPECIFIED
:DEGREES
712
root -1.02967 18.2347 5.87042 2.85978 -1.75494 -4.06215
lowerback 11.4455 0.643341 3.69132
upperback -0.839139 1.30456 -0.856424
thorax -7.22335 0.475126 -3.2188
lowerneck -0.931564 7.40629 10.0852
upperneck 0.466741 10.3394 -22.224
head 2.06201 5.05219 -8.17833
rclavicle -1.21259e-014 -6.36111e-015
rhumerus 25.6512 23.9219 -52.9242
rradius 138.046
rwrist -43.8425
rhand -5.8497 -42.8238
rfingers 7.12502
rthumb 19.9768 -71.817
lclavicle -1.21259e-014 -6.36111e-015
lhumerus -40.9001 -26.3533 101.401
lradius 89.395
lwrist 10.0506
lhand -1.47731 -21.1042
lfingers 7.12502
lthumb 24.1746 7.39233
rfemur 0 0 0
rtibia 0
rfoot 0 0
rtoes 0
lfemur 14.2885 -5.71638 -12.3976
ltibia -16.9526
lfoot -3.5096 19.4481
ltoes -11.3785
713
root -1.03397 18.235 5.87044 2.88492 -1.78935 -4.02165
lowerback 11.5038 0.63146 3.53462
upperback -0.84342 1.26988 -0.847211
thorax -7.26704 0.463339 -3.11592
lowerneck -0.978473 7.49183 10.1063
upperneck 0.270613 10.4252 -22.2825
head 2.03426 5.10018 -8.19488
rclavicle -1.1281e-014 1.43125e-014
rhumerus 25.19 24.3097 -52.9586
rradius 138.411
rwrist -43.647
rhand -5.90086 -42.5078
rfingers 7.12502
rthumb 19.9277 -71.506
lclavicle -1.1281e-014 1.43125e-014
lhumerus -40.9606 -26.266 101.393
lradius 89.4077
lwrist 10.0232
lhand -1.32379 -20.9799
lfingers 7.12502
lthumb 24.3218 7.49702
rfemur 0 0 0
rtibia 0
rfoot 0 0
rtoes 0
lfemur 14.2595 -5.85097 -12.4389
ltibia -16.9186
lfoot -3.64299 19.6067
ltoes -10.9449
714
root -1.03846 18.2349 5.87283 2.89661 -1.90225 -4.0122
lowerback 11.5302 0.655214 3.4092
upperback -0.836749 1.28627 -0.827969
thorax -7.27641 0.476496 -3.02786
lowerneck -0.928952 7.54333 10.157
upperneck -0.0359568 10.4535 -22.4264
head 1.95586 5.13008 -8.25421
rclavicle -3.08613e-014 1.51076e-014
rhumerus 24.6884 24.7821 -52.9924
rradius 138.842
rwrist -43.3297
rhand -5.98851 -42.2758
rfingers 7.12502
rthumb 19.8434 -71.2828
lclavicle -3.08613e-014 1.51076e-014
lhumerus -41.0276 -26.2354 101.419
lradius 89.4257
lwrist 10.044
lhand -1.339 -20.9444
lfingers 7.12502
lthumb 24.3072 7.5344
rfemur 0 0 0
rtibia 0
rfoot 0 0
rtoes 0
lfemur 14.2665 -5.81115 -12.443
ltibia -16.8799
lfoot -3.7134 19.6662
ltoes -10.9848
715
root -1.04255 18.2346 5.87735 2.92332 -2.067 -4.05041
lowerback 11.5331 0.697221 3.35813
upperback -0.835916 1.33616 -0.814325
thorax -7.27467 0.503158 -2.99314
lowerneck -0.851042 7.57056 10.2266
upperneck -0.365692 10.445 -22.572
head 1.86103 5.14475 -8.3218
rclavicle 1.07841e-014 -3.18055e-015
rhumerus 24.1474 25.2108 -53.0794
rradius 139.254
rwrist -43.0429
rhand -5.82289 -42.0519
rfingers 7.12502
rthumb 20.0026 -71.0423
lclavicle 1.07841e-014 -3.18055e-015
lhumerus -41.0897 -26.2314 101.431
lradius 89.398
lwrist 10.0591
lhand -1.42525 -21.0537
lfingers 7.12502
lthumb 24.2246 7.43622
rfemur 0 0 0
rtibia 0
rfoot 0 0
rtoes 0
lfemur 14.2741 -5.78202 -12.4065
ltibia -16.8397
lfoot -3.76544 19.8155
ltoes -11.3669
716
root -1.04714 18.2373 5.88032 3.00885 -2.15612 -4.08669
lowerback 11.5097 0.718193 3.31954
upperback -0.853781 1.3576 -0.82222
thorax -7.27943 0.514618 -2.98309
lowerneck -0.900787 7.61466 10.2911
upperneck -0.536815 10.4758 -22.6145
head 1.83328 5.1646 -8.34445
rclavicle -8.49804e-015 9.54166e-015
rhumerus 23.663 25.4714 -53.1382
rradius 139.653
rwrist -42.8648
rhand -5.65626 -41.9219
rfingers 7.12502
rthumb 20.1628 -70.8955
lclavicle -8.49804e-015 9.54166e-015
lhumerus -41.1622 -26.2238 101.422
lradius 89.3643
lwrist 10.0323
lhand -1.38101 -21.1485
lfingers 7.12502
lthumb 24.267 7.33576
rfemur 0 0 0
rtibia 0
rfoot 0 0
rtoes 0
lfemur 14.2095 -5.89418 -12.3682
ltibia -16.8162
lfoot -3.8368 20.0301
ltoes -11.4714
717
root -1.05355 18.2389 5.88231 3.0802 -2.19826 -4.10826
lowerback 11.5014 0.726936 3.23668
upperback -0.910074 1.35841 -0.820439
thorax -7.33672 0.516256 -2.93525
lowerneck -0.928328 7.67144 10.2693
upperneck -0.549125 10.5472 -22.5133
head 1.83909 5.19895 -8.301
rclavicle 6.11263e-015 -5.56597e-015
rhumerus 23.1468 25.6959 -53.2084
rradius 140.043
rwrist -42.7169
rhand -5.67864 -41.9971
rfingers 7.12502
rthumb 20.1413 -70.973
lclavicle 6.11263e-015 -5.56597e-015
lhumerus -41.4016 -26.1809 101.485
lradius 89.4282
lwrist 9.98575
lhand -1.26366 -21.1031
lfingers 7.12502
lthumb 24.3795 7.36605
rfemur 0 0 0
rtibia 0
rfoot 0 0
rtoes 0
lfemur 14.1485 -5.93594 -12.3246
ltibia -16.7945
lfoot -3.88798 20.1107
ltoes -11.3228
718
root -1.05944 18.2383 5.88468 3.11083 -2.24974 -4.10024
lowerback 11.5205 0.735829 3.12563
upperback -0.995864 1.35696 -0.815586
thorax -7.44202 0.516618 -2.86908
lowerneck -0.799842 7.7151 10.2307
upperneck -0.577554 10.6058 -22.4107
head 1.80966 5.23676 -8.26237
rclavicle 9.79014e-015 -1.03368e-014
rhumerus 22.4704 25.9193 -53.3818
rradius 140.422
rwrist -42.578
rhand -5.68651 -42.0727
rfingers 7.12502
rthumb 20.1337 -71.0495
lclavicle 9.79014e-015 -1.03368e-014
lhumerus -41.7385 -26.0941 101.6
lradius 89.5193
lwrist 9.94923
lhand -1.14228 -21.0532
lfingers 7.12502
lthumb 24.4958 7.40023
rfemur 0 0 0
rtibia 0
rfoot 0 0
rtoes 0
lfemur 14.1233 -5.92036 -12.3146
ltibia -16.7667
lfoot -3.9236 20.1429
ltoes -11.1387
719
root -1.06444 18.2387 5.88683 3.13093 -2.30433 -4.05723
lowerback 11.5499 0.74732 2.99018
upperback -1.02295 1.35303 -0.835345
thorax -7.49041 0.51836 -2.81403
lowerneck -0.76017 7.76853 10.2789
upperneck -0.715987 10.6591 -22.4259
head 1.77655 5.27138 -8.27523
rclavicle 8.00108e-015 5.56597e-015
rhumerus 21.8719 26.0314 -53.553
rradius 140.769
rwrist -42.3725
rhand -5.71346 -42.0145
rfingers 7.12502
rthumb 20.1078 -70.994
lclavicle 8.00108e-015 5.56597e-015
lhumerus -41.8802 -26.0452 101.624
lradius 89.5448
lwrist 9.9759
lhand -1.03733 -21.0456
lfingers 7.12502
lthumb 24.5964 7.3942
rfemur 0 0 0
rtibia 0
rfoot 0 0
rtoes 0
lfemur 14.1152 -5.99789 -12.36
ltibia -16.7485
lfoot -3.98971 20.2642
ltoes -11.016
720
root -1.07002 18.2394 5.88927 3.14739 -2.35747 -4.06941
lowerback 11.5817 0.749469 2.88931
upperback -1.00276 1.34196 -0.840262
thorax -7.48955 0.517214 -2.76072
lowerneck -0.824868 7.85949 10.3327
upperneck -0.895723 10.7524 -22.4529
head 1.7581 5.32151 -8.28581
rclavicle -1.22253e-014 2.38542e-015
rhumerus 21.4197 26.0549 -53.7045
rradius 141.048
rwrist -42.1759
rhand -5.65189 -41.7087
rfingers 7.12502
rthumb 20.167 -70.6819
lclavicle -1.22253e-014 2.38542e-015
lhumerus -41.8891 -26.028 101.571
lradius 89.5568
lwrist 10.0561
lhand -1.08705 -21.0185
lfingers 7.12502
lthumb 24.5488 7.42779
rfemur 0 0 0
rtibia 0
rfoot 0 0
rtoes 0
lfemur 14.1174 -6.12446 -12.3494
ltibia -16.7324
lfoot -4.07173 20.4316
ltoes -10.9756
721
root -1.07548 18.2411 5.89082 3.19092 -2.38285 -4.11437
lowerback 11.6272 0.733391 2.85062
upperback -1.04123 1.31676 -0.841373
thorax -7.55926 0.50455 -2.73745
lowerneck -0.775048 7.94751 10.3328
upperneck -1.05647 10.8496 -22.4391
head 1.71979 5.37936 -8.27855
rclavicle -3.77691e-015 -8.74653e-015
rhumerus 20.9325 26.0389 -53.8552
rradius 141.377
rwrist -42.2133
rhand -5.481 -41.4499
rfingers 7.12502
rthumb 20.3312 -70.4057
lclavicle -3.77691e-015 -8.74653e-015
lhumerus -42.0043 -25.9944 101.541
lradius 89.6241
lwrist 10.1266
lhand -1.12432 -20.8867
lfingers 7.12502
lthumb 24.513 7.56444
rfemur 0 0 0
rtibia 0
rfoot 0 0
rtoes 0
lfemur 14.0687 -6.17537 -12.2849
ltibia -16.7095
lfoot -4.10574 20.5071
ltoes -10.9569
722
root -1.08026 18.2428 5.89211 3.22451 -2.37826 -4.11495
lowerback 11.6778 0.710817 2.79682
upperback -1.09672 1.2795 -0.862597
thorax -7.65083 0.485582 -2.72526
lowerneck -0.688482 8.0118 10.3071
upperneck -1.18737 10.921 -22.4298
head 1.67781 5.42523 -8.27168
rclavicle 1.63003e-014 -8.74653e-015
rhumerus 20.4084 25.9933 -53.999
rradius 141.809
rwrist -42.3479
rhand -5.10875 -41.3553
rfingers 7.12502
rthumb 20.6889 -70.2726
lclavicle 1.63003e-014 -8.74653e-015
lhumerus -42.1716 -25.9233 101.543
lradius 89.7085
lwrist 10.109
lhand -1.02218 -20.7455
lfingers 7.12502
lthumb 24.611 7.69233
rfemur 0 0 0
rtibia 0
rfoot 0 0
rtoes 0
lfemur 14.0266 -6.23199 -12.2679
ltibia -16.6934
lfoot -4.12546 20.5533
ltoes -10.9712
